<svg xmlns="http://www.w3.org/2000/svg" xmlns:xlink="http://www.w3.org/1999/xlink" width="800" height="800"><defs><path id="a" d="M0 0h800v800H0z"/></defs><defs><path id="b" d="M0 0h800v800H0z"/></defs><clipPath id="c"><use xlink:href="#b" overflow="visible"/></clipPath><path clip-path="url(#c)" fill="none" stroke="#000" stroke-miterlimit="10" d="M433.9 353.5c-10.8 0-16.6.3-22.5 4.8s-10.1 5.8-13.9 5.8-8-1.3-13.9-5.8-11.8-4.8-22.5-4.8h-63.6V367s10 2.1 10 18.5 8.6 34 29.3 34 32.6.5 41.6-11.4 7.1-30.8 19.1-30.8 10.1 18.9 19.1 30.8 21 11.4 41.6 11.4 29.3-17.6 29.3-34 10-18.5 10-18.5v-13.5h-63.6z"/><path clip-path="url(#c)" fill="none" stroke="#000" stroke-miterlimit="10" d="M449 415.3c10.4 0 19.8.3 25.5-7s7.3-20.2 7.3-31.3c0-11.1-5.9-16.5-20.3-17.5s-25.8-.4-34.9.5c-6.3.6-21.4 3.6-15.3 20.8 6.1 17.3 7.5 34.5 37.7 34.5zM346 415.3c-10.4 0-19.8.3-25.5-7s-7.3-20.2-7.3-31.3c0-11.1 5.9-16.5 20.3-17.5s25.8-.4 34.9.5c6.3.6 21.4 3.6 15.3 20.8-6.1 17.3-7.5 34.5-37.7 34.5zM485.5 358.5h7v3h-7zM302.5 358.5h7v3h-7z"/><path clip-path="url(#c)" fill="none" stroke="#000" stroke-linejoin="round" stroke-miterlimit="10" d="M297.5 353.5s-17.5 5.8-19.8 15.5c0 0-1 5.6 2.4 6.3 0 0 3.3-7.3 17.3-8.3v-13.5zM497.5 353.5s9.2 6 10.3 15.7c0 0-1.7-.1-2.1.9-.4.9-.2 2.2-.3 3.2 0 0-1.7-4.6-7.9-6.3v-13.5z"/><path clip-path="url(#c)" fill="none" stroke="#000" stroke-miterlimit="10" d="M499.2 367.6s1.9 19.7-.6 25.3c-2.5 5.6-3.6 14.4-3.6 14.4s7.5-3.2 8.5-14.8c.8-8.8 6.8-12 1.3-20.4-2.2-3.3-5.6-4.5-5.6-4.5zM291.4 381.5c.5-2.9-.8-7.7-1.1-13.3-3.9.7-7.4 1.9-10.2 7 1.8 2.9 3.2 6.1 3 9.6-.4 5 4.3 2.9 7.5 13.1.8 2.7 3.9 2 3.9 2 .6-7.7-4.4-9.7-3.1-18.4z"/><path clip-path="url(#c)" fill="none" stroke="#000" stroke-miterlimit="10" d="M511.9 373.5c.3-.3.9-2.1 1.4-4.3.1-.6 1.7.1 1.5-.6-.5-1.7.3-5.6.5-6.7.3-1.2 1.6-.1 1.2-1.4-.4-1.1.1-4.5.2-5.3.5-2.4.9-4.7 1.3-7 .1-.6 1.2-.1 1-.7-.4-1.8-.3-4.6-.2-6.5.2-2.1-1.2-6.2-1.2-8.4 0-.4 1.6.4 1.2-.4-1-2.3-1.9-7-2.1-9.2-.2-2.1 2.1.2 1.3-2.6-.6-2.1-.7-4.4-1.3-6.8-.3-1.4-1.6-6.2-1.9-7.7-.6-2.4 2.1.9 1.1-1.2-1.2-2.6-3.1-7.4-3.8-9.9-.8-3-2.7-6.1-3.6-8.9-.1-.3 1.9.7.8-.6-1.3-1.6-1.3-3.9-2-5.9-.5-1.3-1-2.7-1.5-4-.9-2.4-2-4.7-3.1-7.2-.1-.2 1.3.1.8-.4-1.2-1.3-2.7-3.5-3.5-5.2-.8-1.5-2.4-3.2-3.2-4.8-.1-.2 1.5-.2.6-.7-1.3-.6-2.6-2.3-3.3-3.6-.7-1.3-.5-2.6-1.3-3.9-1.4-2.3-3.4-4.2-5.1-6.1-.1-.2 1.4-.6.4-.8-3-.8-4.3-4.4-6.5-6.3-1.4-1.2-3.5-1.3-5-2.4-.2-.1.7-.7.4-.7-1.8-.2-3.6-3-5.3-4.1-1.6-1.1-4.3-.8-6-1.9-1.8-1.1-2.6-3.6-4.4-4.8-1-.7-1.8-2.1-2.8-2.9-.2-.1 1.1-.5.1-.7-1.4-.3-2.3-1.6-3.4-2.5-1.2-.9-3.4-.9-4.6-2-.9-.8-1.9-1.8-2.9-2.6-.2-.2 1.3-.7.5-1.4s-2.6-.5-3.4-1.4c-.9-.9-1.5-1.8-2.3-2.8-.1-.1 1.5.4.4-.4-.8-.6-1.3-2.5-1.9-3.3-.6-.7-2.5-2.4-3-3.2-.4-.6 1.6-.2.3-.9s-2.8-1.4-3.9-2.2c-2.3-1.7.4-1.9-.8-2.8-3.6-2.6-8-6.7-11.1-7.6-3.8-1-1-2-3.2-2.3-6.4-.9-16.6 1.3-25.9 2.7-2.6.4-6.7.1-5.9-.6 2.5-2.3-9.4 1.9-13.4 1.8-3.3-.1-5.9.9-6-1.5-.1-1.3-6.1 1.9-7.5 2.2-1.7.3-5.5 1.5-6.3.4-2.1-3.1-4.9 7.1-10.6 11.1-2 1.4-3.5 1.7-6.7 3-1.1.5-4.1.4-5.5.9-2.6.9-6.8 3-5.6-.3.1-.4-6.6 5.3-8.7 5.7-2.6.5-4.9 4.1-5.3 2.4-.7-2.6-5.6 4.5-7.8 5.8-1.9 1.1-2.9-1.2-4.5 1.5-.7 1.2-2.6 3.4-3.3 4.1-1.1.9-3.2-.4-3.5.9-.4 1.7-1.4 3.9-2.3 4.9-.9 1.1-4.4.5-3.7 1.6.7 1 0 3.5-.6 4.5-1.1 1.9-1.6 3.9-2.6 2.9-2-1.9-.9 5.6-1 7.4-.3 4.4-.8 7-1.8 8.1-1.6 1.8 0 4.9-.7 7.4-.4 1.4-1 2.9-2 4.8-.5 1-3.7 2.5-3.2 3 1.1 1-.6 3.5-1.7 5-.9 1.3-5.5 4.6-4.2 4.9 2.2.5.1 3.1-1.1 5.1-1.2 2-5.5 5-3.5 4.8 1.2-.1-.6 4.4-1 5.5-.4 1.2-3.1 4.7-2 4.1 1.4-.9.5 2.9.5 4.8 0 1.3-1 4.5-.2 3.6.6-.7 1 2.7 1.2 3.7.2 1.1.4 1.3.7 2.4.2 1.1-.3 4.8.2 4 .7-1.1 1 2.5 1.4 3.8.4 1.2-.6 7.4.4 5.5 1-1.8.2 1.1.8 2.8.5 1.4.4 5.6.8 4.7.7-1.4 1.9 2 2.5 3.3.7 1.6 1.4 7.5 1.8 4.9.4-2.2 1.7 3.7 2.4 5.6.8 2.3.2 8.3 1 6.2 1-2.4 2.2 4.7 2.4 7.9.2 2.6.3 6.4.4 7.6"/><path clip-path="url(#c)" fill="none" stroke="#000" stroke-miterlimit="10" d="M293.1 355.2c4.7-2.2 3.6-9.4 2.2-19.6-3-22-7.9-32.4.2-51.4 8.5-20.1 18-48.3 41.5-50.9 29.2-3.3 28 10.8 67.3 10 39.7-.8 39.2-12.6 57.1 2.8 21.7 18.7 14.6 27.6 24.1 47.9 6.9 14.8 6.8 43.7 13 60.2M291.4 399s9 56.1 12.5 70.6 4.8 22.3 21.5 39.1 25.3 39.7 60.8 39.8c10.2 0 18.5.2 22.9-.2 18.1-1.3 30.3-11.8 56.2-37.3 23.8-23.4 22.4-34.7 24.4-53.7 1.8-17.4 2.9-8.8 7.8-51.6M277.7 371.8zM277.6 370.1v-.1.1zM277.5 370.6zM277.6 371.1c0 .1 0 .1 0 0 0 .1 0 .1 0 0z"/><path fill="none" stroke="#000" stroke-miterlimit="10" d="M559.8 124.7v2.2"/><g fill="none" stroke="#000" stroke-miterlimit="10"><path d="M497.5 405.7c-2.3 19.5-4.6 30.3-6.4 41.9 2.3.9 6.8-8.4 10.4-13.6 4.3-6.3 4.4-15.4 5.2-22.9.8-7.8 3.8-17.2 5.2-23.9 2.9-14.4-1.6-19.4-5.8-17.4"/><path stroke-linecap="round" d="M507.2 381.1c4.8-4.8 3.6 5.4.6 12.6M496.1 420.9c3-.2 7.6-4.9 7.3-8.2-.5-5.7 1.8-11 1.8-17.7"/><path d="M278.5 374.2c-1.8 2.5-4.1 14.2-2.7 21 2.1 9.6 4.1 9.3 7.5 22.1 2.8 10.6 15.8 27 14.9 21.9-1.7-9.1-4.2-25.2-6.6-39.8"/><path stroke-linecap="round" d="M280.8 376.2s-4.1 13.6 0 19.6M285 398.2s-.4 2.8.1 8 2.8 8.4 3.5 11.6c.6 2.7 3.9 3.3 6.3 1.9"/></g><g><path fill="none" stroke="#000" stroke-width="1.215" stroke-miterlimit="10" d="M451.3 451.8l.5 2.6"/><path fill="none" stroke="#000" stroke-width="1.107" stroke-miterlimit="10" d="M451.6 447.8l-.2 2.4"/><path fill="none" stroke="#000" stroke-width="1.238" stroke-miterlimit="10" d="M448.9 448.3l-.4 2.6"/><path fill="none" stroke="#000" stroke-width="1.169" stroke-miterlimit="10" d="M447 451.2l.4 2.6"/><path fill="none" stroke="#000" stroke-width="1.186" stroke-miterlimit="10" d="M444.8 451.6v2.6"/><path fill="none" stroke="#000" stroke-width="1.156" stroke-miterlimit="10" d="M443.7 447.2l-.4 2.4"/><path fill="none" stroke="#000" stroke-width="1.24" stroke-miterlimit="10" d="M441.1 450l-.1 2.7"/><path fill="none" stroke="#000" stroke-width="1.254" stroke-miterlimit="10" d="M438.6 450.5l.1 2.8"/><path fill="none" stroke="#000" stroke-width=".949" stroke-miterlimit="10" d="M438.1 444.9l-.5 2"/><path fill="none" stroke="#000" stroke-width=".947" stroke-miterlimit="10" d="M436.6 448l.3 2.1"/><path fill="none" stroke="#000" stroke-width=".927" stroke-miterlimit="10" d="M434.4 450.9l.4 1.9"/><path fill="none" stroke="#000" stroke-width=".923" stroke-miterlimit="10" d="M434.1 447.4l.5 1.9"/><path fill="none" stroke="#000" stroke-width="1.051" stroke-miterlimit="10" d="M431.3 447.6l.5 2.2"/><path fill="none" stroke="#000" stroke-width="1.072" stroke-miterlimit="10" d="M429.5 448.5l-.2 2.3"/><path fill="none" stroke="#000" stroke-width="1.09" stroke-miterlimit="10" d="M426.8 447.6l.2 2.4"/><path fill="none" stroke="#000" stroke-width=".997" stroke-miterlimit="10" d="M425.1 443.3l-.1 2.2"/><path fill="none" stroke="#000" stroke-width="1.196" stroke-miterlimit="10" d="M422.4 446.2l.7 2.5"/><path fill="none" stroke="#000" stroke-miterlimit="10" d="M422.2 442.7l.4 2.1"/><path fill="none" stroke="#000" stroke-width="1.318" stroke-miterlimit="10" d="M418.5 444l.6 2.8"/><path fill="none" stroke="#000" stroke-width=".89" stroke-miterlimit="10" d="M410.4 443.8l-.2 1.9"/><path fill="none" stroke="#000" stroke-width="1.287" stroke-miterlimit="10" d="M409.7 439l-.2 2.7"/><path fill="none" stroke="#000" stroke-width=".989" stroke-miterlimit="10" d="M405.1 441.1l.2 2.1"/><path fill="none" stroke="#000" stroke-width="1.095" stroke-miterlimit="10" d="M403.7 444.9v2.4"/><path fill="none" stroke="#000" stroke-width="1.178" stroke-miterlimit="10" d="M401.7 439l.5 2.6"/><path fill="none" stroke="#000" stroke-width="1.078" stroke-miterlimit="10" d="M400.8 442.8v2.3"/><path fill="none" stroke="#000" stroke-width="1.002" stroke-miterlimit="10" d="M399.6 439.9l-.1 2.2"/><path fill="none" stroke="#000" stroke-width="1.144" stroke-miterlimit="10" d="M395.7 444.3l.6 2.4"/><path fill="none" stroke="#000" stroke-width="1.149" stroke-miterlimit="10" d="M395 438.7l.1 2.5"/><path fill="none" stroke="#000" stroke-width="1.178" stroke-miterlimit="10" d="M392.4 440.1l-.3 2.6"/><path fill="none" stroke="#000" stroke-width="1.004" stroke-miterlimit="10" d="M386.7 440.2l.6 2.1"/><path fill="none" stroke="#000" stroke-width="1.019" stroke-miterlimit="10" d="M385.8 443.6l.4 2.2"/><path fill="none" stroke="#000" stroke-width=".885" stroke-miterlimit="10" d="M382.8 441.7l.2 1.9M407.4 443.5l.2 1.9"/><path fill="none" stroke="#000" stroke-width="1.119" stroke-miterlimit="10" d="M381.9 446l.7 2.3"/><path fill="none" stroke="#000" stroke-width="1.329" stroke-miterlimit="10" d="M379.3 443.1l-.1 2.9"/><path fill="none" stroke="#000" stroke-width="1.116" stroke-miterlimit="10" d="M377.9 446.5l.1 2.4"/><path fill="none" stroke="#000" stroke-width="1.012" stroke-miterlimit="10" d="M375.8 447.7l.5 2.2"/><path fill="none" stroke="#000" stroke-width="1.325" stroke-miterlimit="10" d="M373.1 444.5l-.4 2.9"/><path fill="none" stroke="#000" stroke-width="1.081" stroke-miterlimit="10" d="M370.1 444.2l.6 2.2"/><path fill="none" stroke="#000" stroke-width="1.279" stroke-miterlimit="10" d="M369.5 449.4l.5 2.7"/><path fill="none" stroke="#000" stroke-width=".94" stroke-miterlimit="10" d="M368.1 451.5l-.1 2.1M349.8 445.2l-.1 2.1"/><path fill="none" stroke="#000" stroke-width="1.065" stroke-miterlimit="10" d="M366.3 444.3l-.4 2.2"/><path fill="none" stroke="#000" stroke-width="1.058" stroke-miterlimit="10" d="M363.4 444.3l.2 2.2"/><path fill="none" stroke="#000" stroke-width=".911" stroke-miterlimit="10" d="M363.7 448.8l-.2 2"/><path fill="none" stroke="#000" stroke-width="1.05" stroke-miterlimit="10" d="M358.9 446.3l.2 2.2"/><path fill="none" stroke="#000" stroke-width="1.151" stroke-miterlimit="10" d="M356.8 445.6l-.1 2.5"/><path fill="none" stroke="#000" stroke-width="1.21" stroke-miterlimit="10" d="M358.8 450.2l.1 2.7"/><path fill="none" stroke="#000" stroke-width="1.019" stroke-miterlimit="10" d="M355 449.5v2.2"/><path fill="none" stroke="#000" stroke-width=".871" stroke-miterlimit="10" d="M353.4 452.2l-.2 1.9"/><path fill="none" stroke="#000" stroke-width="1.168" stroke-miterlimit="10" d="M352.5 446.5l.7 2.4"/><path fill="none" stroke="#000" stroke-width="1.147" stroke-miterlimit="10" d="M349.6 449.3l.3 2.5"/><path fill="none" stroke="#000" stroke-width=".96" stroke-miterlimit="10" d="M430.6 442.7v2.1"/><path fill="none" stroke="#000" stroke-width="1.146" stroke-miterlimit="10" d="M423.7 436.9l-.6 2.5"/><path fill="none" stroke="#000" stroke-width="1.04" stroke-miterlimit="10" d="M421.4 435.6l-.4 2.2"/><path fill="none" stroke="#000" stroke-width="1.046" stroke-miterlimit="10" d="M419 434.2l.2 2.2"/><path fill="none" stroke="#000" stroke-width=".909" stroke-miterlimit="10" d="M417.1 435.4l.5 2M406.4 439.5l.5 1.9"/><path fill="none" stroke="#000" stroke-width="1.036" stroke-miterlimit="10" d="M413.5 438.9l.3 2.3"/><path fill="none" stroke="#000" stroke-width="1.086" stroke-miterlimit="10" d="M414.8 443.4l-.3 2.3"/><path fill="none" stroke="#000" stroke-width="1.124" stroke-miterlimit="10" d="M411.5 437.9l.5 2.3"/><path fill="none" stroke="#000" stroke-width=".949" stroke-miterlimit="10" d="M409.4 433.7v2.1"/><path fill="none" stroke="#000" stroke-width=".902" stroke-miterlimit="10" d="M405.3 435.8v2"/><path fill="none" stroke="#000" stroke-width=".908" stroke-miterlimit="10" d="M401.5 435.9l.4 1.9"/><path fill="none" stroke="#000" stroke-width="1.128" stroke-miterlimit="10" d="M399.6 436l-.1 2.5"/><path fill="none" stroke="#000" stroke-width="1.289" stroke-miterlimit="10" d="M396.2 435.5l.3 2.8"/><path fill="none" stroke="#000" stroke-width="1.18" stroke-miterlimit="10" d="M391.1 434.5l.2 2.5"/><path fill="none" stroke="#000" stroke-width="1.15" stroke-miterlimit="10" d="M388.3 437.8v2.5"/><path fill="none" stroke="#000" stroke-width="1.083" stroke-miterlimit="10" d="M385.3 433l-.3 2.3"/><path fill="none" stroke="#000" stroke-width="1.12" stroke-miterlimit="10" d="M383.5 436.1v2.4"/><path fill="none" stroke="#000" stroke-width=".876" stroke-miterlimit="10" d="M381.6 437l-.4 1.8M390.5 444.2l-.4 1.8"/><path fill="none" stroke="#000" stroke-width=".955" stroke-miterlimit="10" d="M379.4 435.4l.4 2.1"/><path fill="none" stroke="#000" stroke-width="1.124" stroke-miterlimit="10" d="M378.1 440l-.5 2.4"/><path fill="none" stroke="#000" stroke-width="1.102" stroke-miterlimit="10" d="M375.7 434l.7 2.3"/><path fill="none" stroke="#000" stroke-width="1.159" stroke-miterlimit="10" d="M373 437.2l.5 2.5"/><path fill="none" stroke="#000" stroke-width=".905" stroke-miterlimit="10" d="M371.1 439.3l.2 2"/><path fill="none" stroke="#000" stroke-width=".995" stroke-miterlimit="10" d="M387.3 434.9l-.5 2.1"/><path fill="none" stroke="#000" stroke-width="1.092" stroke-miterlimit="10" d="M368.5 438.8l.5 2.3"/><path fill="none" stroke="#000" stroke-width="1.227" stroke-miterlimit="10" d="M446.1 445.2l.8 2"/><path fill="none" stroke="#000" stroke-width="1.001" stroke-miterlimit="10" d="M441.5 445.1l-.5 2.1"/><path fill="none" stroke="#000" stroke-width="1.061" stroke-miterlimit="10" d="M435.4 443.7l-.4 2.3"/><path fill="none" stroke="#000" stroke-width="1.14" stroke-miterlimit="10" d="M433.4 442.7l-.4 2.5"/><path fill="none" stroke="#000" stroke-width="1.146" stroke-miterlimit="10" d="M430 438.4l.6 2.5"/><path fill="none" stroke="#000" stroke-width="1.248" stroke-miterlimit="10" d="M427.5 443.8v2.7"/><path fill="none" stroke="#000" stroke-width="1.103" stroke-miterlimit="10" d="M427.5 439.7l.6 2.3"/><path fill="none" stroke="#000" stroke-width=".998" stroke-miterlimit="10" d="M424.7 439.9l.2 2.2"/><path fill="none" stroke="#000" stroke-width="1.223" stroke-miterlimit="10" d="M420.5 440.4l-.6 2.6"/><path fill="none" stroke="#000" stroke-width=".882" stroke-miterlimit="10" d="M418 440.9l-.2 1.9"/><path fill="none" stroke="#000" stroke-width=".98" stroke-miterlimit="10" d="M416.7 438.6l-.1 2.1"/><path fill="none" stroke="#000" stroke-width="1.075" stroke-miterlimit="10" d="M414.6 433.8l-.5 2.3"/><path fill="none" stroke="#000" stroke-width=".933" stroke-miterlimit="10" d="M410.9 434.4l.1 2"/><path fill="none" stroke="#000" stroke-width="1.09" stroke-miterlimit="10" d="M407.5 436.4l.3 2.4"/><path fill="none" stroke="#000" stroke-width="1.007" stroke-miterlimit="10" d="M403.7 437.4v2.2"/><path fill="none" stroke="#000" stroke-width="1.042" stroke-miterlimit="10" d="M393.5 434.6l-.1 2.3"/><path fill="none" stroke="#000" stroke-width=".883" stroke-miterlimit="10" d="M382.7 431.7l.5 1.8"/><path fill="none" stroke="#000" stroke-width="1.278" stroke-miterlimit="10" d="M380.7 432.4l.2 2.8"/><path fill="none" stroke="#000" stroke-width="1.076" stroke-miterlimit="10" d="M375.4 438.1l-.1 2.3"/><path fill="none" stroke="#000" stroke-width="1.165" stroke-miterlimit="10" d="M369.9 436.8l.5 2.5"/><path fill="none" stroke="#000" stroke-width="1.157" stroke-miterlimit="10" d="M366.8 440.2l.7 2.4"/><path fill="none" stroke="#000" stroke-width=".99" stroke-miterlimit="10" d="M364.7 438l.6 2.1"/><path fill="none" stroke="#000" stroke-width="1.004" stroke-miterlimit="10" d="M406.6 485.6l.6 2.1"/><path fill="none" stroke="#000" stroke-width="1.15" stroke-miterlimit="10" d="M410.1 484l.1 2.5M385.3 483v2.5"/><path fill="none" stroke="#000" stroke-width="1.12" stroke-miterlimit="10" d="M408.1 481.7v2.5"/><path fill="none" stroke="#000" stroke-width=".876" stroke-miterlimit="10" d="M405.9 483.2l-.4 1.9M387.5 481.1l-.4 1.9"/><path fill="none" stroke="#000" stroke-width=".955" stroke-miterlimit="10" d="M403.7 481.7l.4 2"/><path fill="none" stroke="#000" stroke-width="1.124" stroke-miterlimit="10" d="M402.8 485.3l-.4 2.4"/><path fill="none" stroke="#000" stroke-width="1.102" stroke-miterlimit="10" d="M399 480.9l.6 2.3"/><path fill="none" stroke="#000" stroke-width="1.159" stroke-miterlimit="10" d="M397.3 483.5l.5 2.4"/><path fill="none" stroke="#000" stroke-width=".905" stroke-miterlimit="10" d="M395.4 485.6l.3 1.9M417.6 481.1l.3 1.9"/><path fill="none" stroke="#000" stroke-width=".995" stroke-miterlimit="10" d="M411.3 481.1l-.4 2.1M383.8 480.6l-.4 2.1"/><path fill="none" stroke="#000" stroke-width="1.092" stroke-miterlimit="10" d="M392.8 485.1l.5 2.3"/><path fill="none" stroke="#000" stroke-width="1.278" stroke-miterlimit="10" d="M414.3 479.9l.2 2.8"/><path fill="none" stroke="#000" stroke-width="1.076" stroke-miterlimit="10" d="M399.7 484.3l-.1 2.4"/><path fill="none" stroke="#000" stroke-width="1.047" stroke-miterlimit="10" d="M401.7 481v2.3"/><path fill="none" stroke="#000" stroke-width="1.165" stroke-miterlimit="10" d="M394.9 481.9l-.4 2.5"/><path fill="none" stroke="#000" stroke-width="1.157" stroke-miterlimit="10" d="M391.1 486.4l.7 2.5M390.8 482l.7 2.4"/><path fill="none" stroke="#000" stroke-width=".99" stroke-miterlimit="10" d="M389 484.3l.6 2"/><path fill="none" stroke="#000" stroke-width="1.186" stroke-miterlimit="10" d="M362.3 439.4l.3 2.6"/><path fill="none" stroke="#000" stroke-width="1.062" stroke-miterlimit="10" d="M358.6 442.4l.3 2.3M354.3 443.3l.3 2.3"/></g><g><path fill="none" stroke="#000" stroke-linejoin="round" stroke-miterlimit="10" d="M424.5 340.9c-.4-6.2 3-5.4 6.9-8.1s8.4-2.6 8.4-2.6l.8 2.2 3.8-2.2s1 2.1 1.1 2.4 7.6-2.8 7.6-2.8l2.2 2.5 8-1.7 3.3 2.2 15.8 8.7-6.4.7-5.6-.3-4.4-1.8-3.8 1.4-5.6-.2-3 1.3-2.9-1.2-2.8.7-4.5-.5-4.4 1.8-5.3-1.1-4.1 1.1-3.7-1.8-1.4-.7z"/></g><g fill="none" stroke="#000" stroke-miterlimit="10"><path stroke-linecap="round" d="M451.8 457.5c-6.8 2.8-26.5 4.8-34.2 3.2s-11.8 1.8-15.8 1.8-8.2-3.5-15.8-1.8-27.3-.3-34.2-3.2"/><path stroke-linecap="round" d="M451.8 457.5c-22.5 13.7-32.2 15.7-50 15.7s-32.2-2.7-50-15.7M451.8 457.5c-28.8-1.3-33.7-8.9-42-8.7-2.2.1-5.9 1-8 .9-1.6 0-5.6-.9-8.3-.8-8.7.5-14.6 6.9-41.7 8.5"/><path stroke-linejoin="round" d="M413.1 430s3.1-3.6 6.4-3.4c3.8.2 5.9 1.3 1.8 1.8s-4-.1-8.2 1.6zM384.5 429s-2.3-3.7-6.3-3.5c-4.1.2-6.8 1.4-2.4 2s3.9-.3 8.7 1.5z"/><path stroke-linecap="round" stroke-linejoin="round" d="M440.6 425.3s9.6 11 13.9 14.4 6.8 9.6 4.6 14.8M362.6 421.1c-5.1 6.8-24.8 18.5-24.6 27.1M369.3 366.1c-4.8-4.3-8.9-7.5-18.1-7.1s-16.4-.8-24.5 9.9c0 0 6.5 3.9 20.5 2.9s24.6-3.5 22.1-5.7zM425.8 366.1c4.8-4.3 8.9-7.5 18.1-7.1s17.5-.4 25.6 10.2c0 0-6.6 3.5-20.6 2.6s-25.7-3.5-23.1-5.7z"/><path stroke-linecap="round" stroke-linejoin="round" d="M357.9 365c0-2.4-1.1-4.5-2.8-5.9-1.2-.1-2.6-.1-4-.1-2 .1-3.9.1-5.8.2-1.6 1.4-2.6 3.5-2.6 5.8 0 3 1.8 5.6 4.3 6.9h.1c2.7-.2 5.3-.4 7.7-.7 1.9-1.5 3.1-3.7 3.1-6.2zM453.1 359.5c-2.9-.3-5.8-.4-8.8-.5-2.1 1.4-3.6 3.7-3.6 6.4 0 2.4 1.1 4.5 2.8 5.9 1.7.2 3.5.3 5.4.5 1.2.1 2.3.1 3.4.1 2.2-1.3 3.6-3.7 3.6-6.5 0-2.4-1.1-4.5-2.8-5.9z"/><path stroke-linecap="round" d="M429.5 417.5s5 6.6-.5 8.9"/><path stroke-linejoin="round" d="M369 416s-4.9 7.3 0 10M372.2 340.7c.4-6.2-3.1-2.3-7-5s-10.3-4.6-10.3-4.6l-.7 3.1-3.7-3.9s-1 2.1-1.1 2.4-7.6-2.8-7.6-2.8l-2.2 2.5-7.6.6-1.6 3.3-9.7 2.8-1.8 3.1 5.6-.3 4.4-1.8 3.8 1.4 5.6-.2 3 1.3 2.9-1.2 2.8.7 4.5-.5 4.4 1.8 5.3-1.1 4.1 1.1 4.3-.8 2.6-1.9zM435 377.9s8.9 5.6 24.9 2.1M360.3 378.8s-14.6 5.6-29-1.6"/><circle stroke-linejoin="round" cx="448.3" cy="365.5" r="2.9"/><circle stroke-linejoin="round" cx="350.5" cy="365.2" r="2.9"/></g></svg>